<svg width="169" height="42" viewBox="0 0 169 42" fill="none" xmlns="http://www.w3.org/2000/svg">
<path d="M17.6566 0.178009C14.9633 0.620708 11.5541 1.9488 9.23579 3.54932C-1.70784 10.973 -3.17381 26.5015 6.16748 35.9003C16.0884 45.8439 33.1345 43.2558 39.6461 30.8603C41.4871 27.2847 42.0326 25.0712 41.9985 20.7805C41.9985 17.8518 41.8281 16.5578 41.2144 14.8211C38.8279 7.73792 33.3732 2.49366 26.5547 0.688816C24.1 0.0417976 20.0431 -0.196579 17.6566 0.178009ZM21.7818 1.5061C21.7818 2.32339 20.9295 2.66393 20.4181 2.05096C19.9067 1.438 20.2476 0.859081 21.134 0.859081C21.5431 0.859081 21.7818 1.09746 21.7818 1.5061ZM26.5206 4.23039C34.5323 6.75036 39.8166 15.2978 38.5552 23.5388C37.2256 32.1203 29.6571 38.6586 21.0999 38.6586C14.9633 38.6586 8.96305 35.2532 5.75838 29.9409C1.70139 23.2323 2.86053 14.3443 8.48576 8.69141C13.3951 3.75364 19.9408 2.11907 26.5206 4.23039ZM7.4289 7.46548C7.73573 7.80602 7.70164 8.01034 7.29253 8.35088C6.57659 8.92979 5.55382 8.14656 6.13339 7.46548C6.33795 7.19305 6.64478 6.98874 6.78115 6.98874C6.91751 6.98874 7.22435 7.19305 7.4289 7.46548ZM36.0324 7.77197C36.1687 8.45304 35.18 8.92979 34.6687 8.41899C34.1573 7.90818 34.6346 6.92063 35.3164 7.05684C35.6573 7.12495 35.9642 7.43143 36.0324 7.77197ZM2.31505 20.7464C2.62188 21.0869 2.58779 21.2913 2.17868 21.6318C1.53093 22.1766 0.780897 21.5977 1.08773 20.8145C1.36047 20.1334 1.80367 20.1334 2.31505 20.7464ZM41.1462 21.0529C41.2826 21.734 40.2939 22.2107 39.7825 21.6999C39.2711 21.1891 39.7484 20.2015 40.4303 20.3378C40.7712 20.4059 41.078 20.7123 41.1462 21.0529ZM8.7585 35.3554C8.89487 36.0365 7.90619 36.5132 7.39481 36.0024C6.88342 35.4916 7.36072 34.5041 8.04256 34.6403C8.38348 34.7084 8.69032 35.0149 8.7585 35.3554ZM34.4982 34.9808C34.7028 35.6278 34.3959 36.2748 33.8845 36.2748C33.2709 36.2748 32.93 35.6959 33.1686 35.083C33.4072 34.47 34.2936 34.4019 34.4982 34.9808ZM21.7136 40.2932C21.8159 40.838 21.6454 41.0424 21.134 41.0424C20.2476 41.0424 19.9067 40.4634 20.4522 39.8164C20.9976 39.1694 21.5772 39.3737 21.7136 40.2932Z" fill="#FF2A1E"/>
<path d="M18.6795 4.63898C14.8271 5.18384 11.7247 6.85246 8.96319 9.78107C4.9403 14.0378 3.44024 20.3036 5.14485 25.616L5.58805 27.0122L13.0543 21.5977C17.1453 18.635 20.725 16.1832 20.9978 16.1832C21.5092 16.1832 23.6911 17.6134 31.8391 23.3004C36.3052 26.4333 36.6462 26.6036 36.9189 25.9225C37.4303 24.6285 37.5666 19.0777 37.1234 17.1707C35.1802 8.96379 27.0321 3.41305 18.6795 4.63898Z" fill="#FF2A1E"/>
<path d="M14.963 26.6034C11.8606 28.9531 9.09915 31.0985 8.82641 31.3709C8.38321 31.8476 8.48549 32.052 9.84918 33.2438C16.5995 39.2032 26.9294 38.7605 33.1001 32.2903L34.3275 30.9963L27.9181 26.6374C24.3725 24.2537 21.2701 22.3126 21.0315 22.3467C20.7928 22.3467 18.0654 24.2537 14.963 26.6034Z" fill="#FF2A1E"/>
<path d="M85.7971 11.7767C83.4637 15.5274 81.583 18.724 81.583 18.8518C81.583 18.9797 82.1054 19.0649 82.7671 19.0649C83.812 19.0649 84.1254 18.7666 85.2399 16.9339L86.5285 14.8028H90.0809H93.6333L94.9219 16.9339C96.0712 18.8092 96.3847 19.0649 97.4643 19.0649C98.335 19.0649 98.6137 18.9371 98.4395 18.5109C98.0564 17.7437 90.9516 6.15075 90.464 5.46882C90.0809 4.99998 89.2799 6.10813 85.7971 11.7767ZM91.1606 12.1603C90.673 12.2456 89.8371 12.2456 89.2451 12.1603L88.2002 12.0325L89.1406 10.5833L90.0461 9.13423L91.0213 10.5833L91.9964 12.0325L91.1606 12.1603Z" fill="white"/>
<path d="M138.422 11.4358C136.262 14.9733 134.382 18.1273 134.277 18.4682C134.138 18.8945 134.382 19.0649 135.252 19.0649C136.262 19.0649 136.611 18.724 137.655 16.9339L138.874 14.8028H142.427H146.014L147.303 16.9339C148.417 18.724 148.765 19.0649 149.741 19.0649C150.367 19.0649 150.89 18.9371 150.89 18.8092C150.89 18.4256 142.775 5.04261 142.531 4.99998C142.427 4.99998 140.581 7.89822 138.422 11.4358ZM143.506 10.6686L144.273 12.0325L142.671 12.1603C141.8 12.2456 140.999 12.2029 140.894 12.0751C140.72 11.862 142.183 9.26209 142.496 9.26209C142.601 9.26209 143.054 9.90141 143.506 10.6686Z" fill="white"/>
<path d="M49.3677 6.9179C48.0443 8.49488 48.1488 10.9669 49.5767 12.416C50.6215 13.4816 50.7957 13.5242 55.4626 13.5242C58.1094 13.5242 60.5125 13.652 60.826 13.7799C61.5574 14.1209 61.5574 15.911 60.826 16.2519C60.5125 16.3798 57.587 16.5076 54.2784 16.5076H48.2881L48.3577 17.6584L48.3926 18.8518H55.0794H61.8012L62.637 17.6584C63.7515 16.0814 63.7515 13.9504 62.637 12.3734L61.8012 11.18L56.2636 10.9669L50.7608 10.7538L50.6564 9.56041L50.5519 8.40964H56.995H63.4729V7.13101V5.85238H56.8556C50.2733 5.85238 50.2036 5.85238 49.3677 6.9179Z" fill="white"/>
<path d="M67.0251 12.3309L67.1296 18.8519L68.1048 18.9798L69.0451 19.1077V16.3373V13.5243H74.5827C79.8417 13.5243 80.1899 13.4817 81.0606 12.544C81.583 11.9899 82.0358 10.967 82.1751 10.0294C82.3492 8.6655 82.2099 8.28191 81.3044 7.13114L80.2596 5.85251H73.6075H66.9207L67.0251 12.3309ZM80.0158 9.68841V10.7539L74.5479 10.8818L69.0451 11.0097V9.68841V8.36715L74.5479 8.49502L80.0158 8.62288V9.68841Z" fill="white"/>
<path d="M101.435 12.5013V19.1075L102.41 18.9797C103.315 18.8518 103.35 18.7239 103.455 16.1667L103.559 13.5242H105.544C107.529 13.5668 107.529 13.5668 108.191 15.2716C108.992 17.3601 110.629 18.4256 113.903 18.8518L116.062 19.1501V17.8715C116.062 16.6781 116.027 16.6355 113.903 16.3372C111.813 16.0814 110.176 15.1438 109.863 14.0356C109.793 13.6946 110.385 13.5242 111.883 13.5242C115.052 13.5242 116.376 12.416 116.41 9.77351C116.41 8.7506 116.132 7.98342 115.4 7.08838L114.39 5.85237H107.912H101.435V12.5013ZM114.147 9.68827V10.7538L108.853 10.8817L103.524 11.0095V9.68827V8.36701L108.853 8.49488L114.147 8.62274V9.68827Z" fill="white"/>
<path d="M119.893 7.13104V8.40967H123.202H126.51V13.7373V19.0649H127.555H128.6V13.7373V8.45229L131.839 8.32443L135.043 8.19656L135.148 7.00317L135.252 5.85241H127.59H119.893V7.13104Z" fill="white"/>
<path d="M166.91 10.1571V14.4192L160.502 10.3702C156.984 8.11132 154.024 6.27862 153.885 6.27862C153.78 6.27862 153.676 9.13423 153.676 12.6718V19.0649H154.721H155.765V14.8028C155.765 12.4587 155.835 10.5407 155.974 10.5407C156.079 10.5407 158.97 12.3734 162.417 14.5897C165.865 16.806 168.756 18.6387 168.861 18.6387C168.93 18.6387 169 15.7405 169 12.2456V5.85241H167.955H166.91V10.1571Z" fill="white"/>
<path d="M49.8203 24.8922C47.5913 26.597 47.9744 30.2624 50.5168 31.5411C51.3179 31.9247 52.5717 32.564 53.2682 32.9476C54.9051 33.7574 55.323 35.036 54.2434 36.1015C53.8255 36.5277 53.1289 36.8687 52.711 36.8687C51.7358 36.8687 50.4124 35.7179 50.4124 34.9081C50.4124 34.3967 50.1686 34.3114 49.2979 34.5245C47.8003 34.9081 47.7655 34.9934 48.3575 36.3146C48.9148 37.6359 51.1437 38.9571 52.7806 38.9998C54.2782 38.9998 56.1937 38.0195 56.6465 36.9539C56.8554 36.4425 57.0296 35.377 57.0296 34.5245C57.0296 32.564 55.9848 31.328 53.4075 30.3477C50.8651 29.3674 50.2034 28.5576 50.8651 27.3216C51.5965 26.0003 53.3379 25.9151 54.313 27.1937C54.9051 27.9183 55.3579 28.1314 55.9499 27.9183C57.1689 27.5773 57.1689 26.9806 55.9848 25.5741C54.5917 23.9545 51.5268 23.5709 49.8203 24.8922Z" fill="white"/>
<path d="M64.9704 24.935C63.2638 26.0857 62.2538 27.8758 62.01 30.4757C61.5921 34.7804 63.5773 38.1475 66.9555 38.8294C72.3886 39.8523 75.9759 32.5641 72.8762 26.7677C71.5528 24.3383 67.4083 23.358 64.9704 24.935ZM70.6472 27.8758C71.5179 28.9413 71.6572 29.4528 71.6572 31.456C71.6572 33.2887 71.4831 33.9706 70.8214 34.8657C67.861 38.7442 62.9504 34.9509 64.3435 29.8364C65.249 26.5119 68.6621 25.4464 70.6472 27.8758Z" fill="white"/>
<path d="M79.6675 31.3281V38.5737H82.6278C85.5533 38.5737 85.5882 38.5737 85.5882 37.5082C85.5882 36.4853 85.4837 36.4427 83.6726 36.4427H81.7571V30.2626V24.0826H80.7123H79.6675V31.3281Z" fill="white"/>
<path d="M90.4641 29.4101C90.4641 36.059 90.8472 37.3376 93.111 38.4031C95.8275 39.6818 98.5789 38.4458 99.4148 35.5475C99.6586 34.7377 99.8327 31.8395 99.8327 29.0691L99.8675 24.0825H98.6486H97.4296V29.538C97.4296 35.6328 97.151 36.4426 95.131 36.4426C93.2155 36.4426 93.0762 36.1016 92.902 29.9642L92.7279 24.2956L91.6134 24.1677L90.4641 24.0398V29.4101Z" fill="white"/>
<path d="M104.743 25.3612C104.743 26.5546 104.813 26.6398 106.136 26.6398H107.529V32.6068V38.5737H108.574H109.619V32.6068V26.6398H111.186C112.684 26.6398 112.753 26.5972 112.753 25.3612V24.0826H108.748H104.743V25.3612Z" fill="white"/>
<path d="M117.63 31.2855V38.5737H118.849H120.068L119.998 31.4134L119.893 24.2957L118.779 24.1678L117.63 24.0399V31.2855Z" fill="white"/>
<path d="M128.948 24.6791C127.485 25.4463 126.058 27.6199 125.779 29.4526C125.431 31.6689 125.814 34.6524 126.58 35.9737C127.451 37.4654 129.993 38.9998 131.56 38.9998C133.128 38.9998 135.67 37.4228 136.575 35.8884C137.063 35.0786 137.307 33.8426 137.411 31.8394C137.516 29.41 137.411 28.7707 136.715 27.5347C135.426 25.1905 134.242 24.3807 132.013 24.2102C130.794 24.125 129.575 24.2955 128.948 24.6791ZM133.65 27.3642C134.869 28.2166 135.391 29.5805 135.391 31.7968C135.391 33.2033 135.148 33.8426 134.207 34.9934C132.64 36.9113 130.69 37.0392 129.088 35.2491C128.182 34.2688 127.938 33.6295 127.799 31.8394C127.66 29.751 127.729 29.5379 128.879 28.1314C130.272 26.4265 131.978 26.1282 133.65 27.3642Z" fill="white"/>
<path d="M143.297 24.3809C143.228 24.594 143.123 27.8332 143.088 31.6265L142.984 38.5737H144.238H145.457L145.561 33.3313L145.666 28.1316L148.278 33.3313L150.89 38.5737H152.387H153.85V31.2855V24.0399L152.736 24.1678L151.586 24.2957L151.412 29.5381L151.238 34.7378L148.521 29.4102C145.909 24.2957 145.735 24.0826 144.621 24.0826C143.959 24.0826 143.367 24.2104 143.297 24.3809Z" fill="white"/>
<path d="M160.781 25.2758C159.98 26.1708 159.701 26.8528 159.666 28.0036C159.631 30.0494 160.432 31.1149 162.696 32.0099C165.935 33.2886 166.806 34.6098 165.482 36.1868C164.647 37.2523 163.323 36.9966 162.209 35.6327C161.477 34.7377 160.955 34.482 160.293 34.6098C158.935 34.9508 158.9 35.4622 160.189 37.0392C162.104 39.3834 165.343 39.5965 167.328 37.5507C168.094 36.7409 168.303 36.1442 168.303 34.8229C168.303 32.6066 167.502 31.5411 165.204 30.6461C162.835 29.7084 161.86 28.9412 161.86 27.9183C161.86 26.0856 164.542 25.6168 165.587 27.2364C166.109 28.0036 166.492 28.2167 167.189 28.0462C168.721 27.6626 168.129 25.6594 166.214 24.6791C164.194 23.6562 162.034 23.9119 160.781 25.2758Z" fill="white"/>
</svg>
